<?xml version="1.0" encoding="utf-8"?>
<!-- Generator: Adobe Illustrator 27.8.0, SVG Export Plug-In . SVG Version: 6.00 Build 0)  -->
<svg version="1.1" id="Capa_1" xmlns="http://www.w3.org/2000/svg" xmlns:xlink="http://www.w3.org/1999/xlink" x="0px" y="0px"
	 viewBox="0 0 500 500" style="enable-background:new 0 0 500 500;" xml:space="preserve">
<g>
	<g>
		<path d="M113.5,375.6c1.6,1.7,2.6,3.5,3.1,5.4c0.4,1.9,0.3,3.7-0.4,5.6c-0.7,1.9-2,3.6-3.8,5.3L94.9,408c-1.8,1.7-3.7,2.8-5.6,3.4
			s-3.7,0.5-5.6-0.1s-3.5-1.8-5.1-3.5c-1.6-1.7-2.6-3.5-3.1-5.4s-0.3-3.7,0.4-5.5c0.7-1.8,2-3.6,3.8-5.3l2.8-2.5l5.5,5.9l-2.8,2.5
			c-0.6,0.5-1,1.1-1.3,1.6c-0.3,0.6-0.3,1.1-0.3,1.7c0.1,0.6,0.4,1.1,0.8,1.6c0.7,0.7,1.4,1,2.3,1c0.9,0,1.7-0.5,2.6-1.3l17.5-16.2
			c0.9-0.8,1.4-1.6,1.5-2.5c0.1-0.9-0.2-1.6-0.8-2.3c-0.7-0.8-1.5-1.1-2.3-1c-0.9,0.1-1.7,0.5-2.6,1.3l-2.8,2.5l-5.5-5.9l2.8-2.5
			c1.8-1.7,3.7-2.8,5.6-3.4c1.9-0.6,3.7-0.5,5.6,0.1S111.9,373.8,113.5,375.6z"/>
		<path d="M61.3,386l37.3-27.9l4.8,6.4l-37.3,27.9L61.3,386z"/>
		<path d="M95.7,354.6l-40,23.6l-3.2-5.4l21.2-25.2l1.5,0.1l-27.8,16.4l-3.7-6.2l40-23.6l3.2,5.4l-19.7,24.2l-1.5-0.1L92,348.3
			L95.7,354.6z"/>
		<path d="M44.6,341.5l-7.2,3l-6.6-15.8l7.2-3L44.6,341.5z M81.8,329.9l-43,17.8l-3-7.3l43-17.8L81.8,329.9z M62.6,334l-7.1,3
			l-6-14.4l7.1-3L62.6,334z M80.4,326.7l-7.2,3l-6.6-15.8l7.2-3L80.4,326.7z"/>
		<path d="M69.3,295.1l-45.7,9l-1.5-7.8l45.7-9L69.3,295.1z M68.7,291.9l-7.5,1.5L58,276.9l7.5-1.5L68.7,291.9z"/>
		<path d="M65.1,274.4L18,265.9l-0.3-5.6l45.8-13.7l0.4,7.9l-30.1,7.7l30.8,4.3L65.1,274.4z M57.5,267.3l-7.4,0.4L49.3,255l7.4-0.4
			L57.5,267.3z"/>
		<path d="M24.9,244.3l-7.6-0.6l1.8-23.2l7.6,0.6L24.9,244.3z M64.3,239.6l-42.5-3.3l0.6-7.9l42.5,3.3L64.3,239.6z"/>
		<path d="M21.5,206.9l45.9,7.8l-1.3,7.8l-45.9-7.8L21.5,206.9z"/>
		<path d="M67.9,210.2l-44.7-12.7l1.7-6l32.9-2l1,1.2l-31.1-8.9l2-7l44.7,12.7l-1.7,6.1L41.5,196l-1-1.2l29.4,8.4L67.9,210.2z"/>
		<path d="M81.4,172.6c-1,2.3-2.3,4-3.9,5.3c-1.5,1.3-3.2,2-5.1,2.1c-1.9,0.2-3.9-0.2-6-1.2l-23.3-10.7c-2.1-1-3.7-2.2-4.8-3.8
			c-1.1-1.5-1.7-3.3-1.7-5.3c0-2,0.5-4.1,1.5-6.4c1-2.3,2.3-4,3.8-5.3c1.5-1.3,3.2-2,5.1-2.1c1.9-0.2,3.9,0.2,6,1.2l23.3,10.7
			c2.1,1,3.7,2.2,4.8,3.7c1.1,1.5,1.7,3.3,1.7,5.3S82.4,170.3,81.4,172.6z M74.2,169.3c0.5-1.1,0.6-2.1,0.2-3s-1.1-1.6-2.3-2.2
			l-21.5-9.9c-1.1-0.5-2.2-0.6-3.1-0.3s-1.6,1-2.2,2.2c-0.5,1.1-0.6,2.1-0.2,3s1.1,1.6,2.3,2.1l21.5,9.9c1.2,0.5,2.2,0.6,3.1,0.3
			S73.7,170.4,74.2,169.3z"/>
		<path d="M129.9,107.5l-27.8-37.3l6.4-4.7l27.8,37.3L129.9,107.5z M122.2,90.8l-4.5-6.1l6.6-4.9c0.8-0.6,1.2-1.3,1.2-2.2
			c0-0.9-0.3-1.8-1-2.7l-3.3-4.4c-0.8-1-1.6-1.6-2.4-1.9c-0.9-0.2-1.7,0-2.5,0.5l-6.6,4.9l-4.5-6.1l6.8-5c1.9-1.4,3.7-2.2,5.5-2.6
			c1.8-0.3,3.5-0.1,5.1,0.6c1.6,0.7,3.1,2,4.4,3.8l4.7,6.3c1.3,1.7,2,3.5,2.3,5.2s-0.1,3.4-0.9,5c-0.8,1.6-2.2,3.1-4,4.5L122.2,90.8
			z"/>
		<path d="M163.1,86.1c-2.2,1.2-4.3,1.8-6.3,1.9s-3.8-0.4-5.4-1.4c-1.6-1-2.9-2.5-4-4.6l-12-22.6c-1.1-2.1-1.6-4-1.5-5.9
			c0.1-1.9,0.7-3.6,1.9-5.2c1.2-1.6,2.9-3,5.1-4.1s4.3-1.8,6.3-1.9c2-0.1,3.8,0.4,5.4,1.4c1.6,1,2.9,2.5,4,4.6l12,22.6
			c1.1,2,1.6,4,1.5,5.9c-0.1,1.9-0.7,3.6-1.8,5.2C166.9,83.6,165.3,84.9,163.1,86.1z M159.3,79.1c1.1-0.6,1.8-1.3,2-2.3
			c0.3-0.9,0.1-2-0.5-3.1l-11.1-20.9c-0.6-1.1-1.3-1.8-2.3-2.1c-0.9-0.3-1.9-0.2-3,0.4c-1.1,0.6-1.7,1.3-2,2.3s-0.1,2,0.5,3.1
			L154,77.4c0.6,1.1,1.4,1.8,2.3,2.2C157.3,79.8,158.3,79.7,159.3,79.1z"/>
		<path d="M161.4,42.9l-2.6-7.1l21.9-8l2.6,7.1L161.4,42.9z M182.1,76.8l-14.7-40l7.4-2.7l14.7,40L182.1,76.8z"/>
		<path d="M198.5,71l-10.5-45.3l7.7-1.8l10.5,45.3L198.5,71z M193.1,32.4l-1.8-7.5l16.7-3.9l1.8,7.5L193.1,32.4z M197.5,51.5
			l-1.7-7.5l15.1-3.5l1.7,7.5L197.5,51.5z M201.9,70.2l-1.8-7.5l16.7-3.9l1.8,7.5L201.9,70.2z"/>
		<path d="M221.8,65.8l-4.1-46.3l6.2-0.5l13.6,30l-0.8,1.3L234,18l7.2-0.6l4.1,46.3l-6.3,0.6l-13.3-28.2l0.7-1.3l2.7,30.4
			L221.8,65.8z"/>
		<path d="M248.7,24.8l0.3-7.6l23.3,1.1l-0.3,7.6L248.7,24.8z M254.6,64.1l1.9-42.6l7.9,0.4l-1.9,42.6L254.6,64.1z"/>
		<path d="M272,65.1l7.8-45.9l7.8,1.3l-7.8,45.9L272,65.1z M275.5,65.7l1.3-7.6l16.9,2.9l-1.3,7.6L275.5,65.7z M278.7,46.7l1.3-7.6
			l15.3,2.6l-1.3,7.6L278.7,46.7z M282,27.4l1.3-7.6l16.9,2.9l-1.3,7.6L282,27.4z"/>
		<path d="M354.9,96.1L383,59l6.3,4.8l-28.1,37.1L354.9,96.1z M357.5,98.1l4.6-6.1l13.4,10.1l-4.6,6.1L357.5,98.1z"/>
		<path d="M410.3,81.6l-31.5,34.2l-5.8-5.4l31.5-34.2L410.3,81.6z"/>
		<path d="M382.3,118.8L417.1,88l5.3,6l-34.9,30.8L382.3,118.8z M385.3,122.2l5.6-4.9l4.6,5.2c0.6,0.7,1.3,1.1,2.1,1.2
			s1.5-0.2,2.2-0.8l4.7-4.1c0.9-0.8,1.4-1.6,1.5-2.4s-0.2-1.7-0.9-2.4l-4.5-5.1l5.5-4.9l4.4,5c0.6,0.7,1.3,1.1,2.1,1.1
			c0.8,0,1.6-0.4,2.4-1.1l3.7-3.3c0.7-0.6,1.1-1.3,1.1-2c0-0.7-0.2-1.5-0.8-2.1l-4.4-5l5.6-4.9l5,5.6c2.1,2.4,3.1,4.8,3,7.2
			c-0.1,2.4-1.3,4.6-3.6,6.6l-3.7,3.3c-1.6,1.4-3.3,2.1-5.1,2.1c-1.8,0-3.5-0.7-5.2-2.1c1.3,2,1.9,3.9,1.7,5.8
			c-0.2,1.9-1.2,3.6-2.9,5.1l-4.8,4.2c-2.3,2-4.7,3-7.1,2.8c-2.4-0.2-4.6-1.4-6.7-3.8L385.3,122.2z"/>
		<path d="M399.6,139.1l38.7-25.8l4.4,6.6L404,145.7L399.6,139.1z M401.5,142l6.4-4.3l9.5,14.3l-6.4,4.3L401.5,142z M417.6,131.3
			l6.4-4.3l8.6,12.9l-6.4,4.3L417.6,131.3z M433.8,120.5l6.4-4.3l9.5,14.3l-6.4,4.3L433.8,120.5z"/>
		<path d="M412.7,159l42-20.1l3.4,7l-42,20.1L412.7,159z M419.7,173.6l16.4-14.7l4.5,5.9l-17.2,16.5L419.7,173.6z M432,153.7
			l6.9-3.3l3.6,7.6c0.5,0.9,1,1.6,1.8,1.8c0.7,0.3,1.5,0.2,2.4-0.2l4.7-2.2c1-0.5,1.6-1.1,1.9-1.9s0.2-1.6-0.2-2.6l-3.6-7.6l6.9-3.3
			l3.4,7.1c1.1,2.3,1.6,4.4,1.7,6.3s-0.5,3.7-1.5,5.2c-1,1.5-2.5,2.8-4.6,3.7l-4.9,2.3c-2.1,1-4.1,1.4-5.9,1.3
			c-1.9-0.1-3.6-0.8-5.1-2.1c-1.5-1.2-2.9-3-3.9-5.3L432,153.7z"/>
		<path d="M424,182.8l47.8-2.8l1.6,5.3L432,209.4l-2.3-7.5l27.5-14.6l-30.9,3.1L424,182.8z M433.1,187.9l7.1-2.1l3.7,12.1l-7.1,2.1
			L433.1,187.9z"/>
		<path d="M432.4,211.9l46-6.7l1.1,7.9l-46,6.7L432.4,211.9z M433.2,217.1l7.5-1.1l0.9,5.9c0.2,1.1,0.6,1.8,1.3,2.3s1.7,0.6,2.8,0.5
			l23.6-3.4c1.2-0.2,2-0.6,2.6-1.3c0.6-0.7,0.7-1.5,0.6-2.6l-0.9-5.9l7.5-1.1l1,6.7c0.5,3.3,0,6-1.6,8.1c-1.5,2.1-3.9,3.4-7.2,3.8
			l-25.4,3.7c-2.2,0.3-4.1,0.2-5.8-0.4c-1.7-0.6-3-1.6-4.1-3.1c-1-1.4-1.7-3.3-2-5.5L433.2,217.1z"/>
		<path d="M435.5,250.7c0-2.5,0.5-4.6,1.4-6.4c0.9-1.8,2.2-3.1,3.8-4c1.6-0.9,3.6-1.3,5.9-1.3l25.6,0.4c2.3,0,4.3,0.5,5.9,1.5
			c1.6,1,2.8,2.3,3.7,4.1s1.2,3.9,1.2,6.4c0,2.5-0.5,4.6-1.4,6.4c-0.9,1.8-2.1,3.1-3.8,4s-3.6,1.3-6,1.3l-25.6-0.4
			c-2.3,0-4.3-0.5-5.9-1.5c-1.6-1-2.8-2.3-3.7-4.1S435.4,253.2,435.5,250.7z M443.4,250.8c0,1.2,0.3,2.2,1,2.9c0.7,0.7,1.7,1,3,1.1
			l23.6,0.4c1.3,0,2.2-0.3,3-1c0.7-0.7,1.1-1.6,1.1-2.8c0-1.2-0.3-2.2-1-2.8c-0.7-0.7-1.7-1-2.9-1.1l-23.6-0.4c-1.3,0-2.3,0.3-3,1
			S443.4,249.6,443.4,250.8z"/>
		<path d="M435.9,340.2l-8.1,15l-6.7-3.6l8.1-15L435.9,340.2z"/>
		<path d="M396.8,364.3l5.7,4.8l-4.5,5.4c-0.6,0.8-0.9,1.5-0.9,2.3c0.1,0.8,0.4,1.4,1.2,2l4.8,4c0.9,0.7,1.8,1.1,2.6,1.1
			c0.8,0,1.6-0.4,2.3-1.2l4.4-5.3l5.6,4.7l-4.3,5.1c-0.6,0.7-0.8,1.5-0.7,2.3s0.6,1.5,1.5,2.2l3.8,3.2c0.7,0.6,1.4,0.9,2.2,0.8
			c0.7-0.1,1.4-0.5,2-1.2l4.3-5.1l5.7,4.8l-4.8,5.7c-2,2.4-4.2,3.8-6.6,4c-2.4,0.3-4.8-0.6-7.1-2.5l-3.8-3.2
			c-1.6-1.4-2.6-2.9-2.9-4.7s0.1-3.6,1.2-5.5c-1.8,1.6-3.6,2.4-5.5,2.5c-1.9,0.1-3.7-0.6-5.5-2.1l-4.9-4.1c-2.4-2-3.6-4.2-3.8-6.6
			c-0.2-2.4,0.7-4.8,2.7-7.2L396.8,364.3z M399.8,360.8l35.7,29.8l-5.1,6.1l-35.7-29.8L399.8,360.8z"/>
		<path d="M373.3,388.6c1.9-1.7,3.7-2.8,5.7-3.3c1.9-0.5,3.8-0.5,5.5,0.1c1.8,0.6,3.4,1.8,5,3.5l17,19.1c1.5,1.7,2.5,3.5,2.9,5.4
			c0.4,1.8,0.2,3.7-0.6,5.5c-0.8,1.8-2.1,3.6-3.9,5.2c-1.9,1.7-3.7,2.8-5.6,3.3c-1.9,0.5-3.7,0.5-5.5-0.1c-1.8-0.6-3.5-1.8-5-3.5
			l-17-19.1c-1.5-1.7-2.5-3.5-2.9-5.3c-0.4-1.8-0.2-3.7,0.6-5.5S371.5,390.2,373.3,388.6z M378.6,394.5c-0.9,0.8-1.4,1.7-1.4,2.7
			c0,1,0.4,1.9,1.2,2.9l15.7,17.6c0.8,0.9,1.7,1.4,2.7,1.5c1,0.1,1.9-0.3,2.8-1.1c0.9-0.8,1.4-1.7,1.4-2.7c0-1-0.4-1.9-1.2-2.9
			l-15.7-17.6c-0.9-1-1.8-1.5-2.7-1.6C380.4,393.3,379.5,393.7,378.6,394.5z"/>
		<path d="M358.1,401.5l4.2,6.3l-13.9,9.3l-4.2-6.3L358.1,401.5z M360.8,399.7l25.8,38.7l-6.6,4.4l-25.8-38.7L360.8,399.7z"/>
		<path d="M356.4,456.8l-22-41l7-3.8l22,41L356.4,456.8z"/>
		<path d="M325.1,420.2l25.7,39.7l-7.8,3.2l-16.4-28l8.2,31.4l-7.8,3.2l-9.9-46.3L325.1,420.2z"/>
		<path d="M313.3,473.8l-13.4-44.6l7.6-2.3l13.4,44.6L313.3,473.8z"/>
		<path d="M297.8,430.3l-2.4,47.8l-5.5,1l-19.4-43.7l7.7-1.4l11.5,28.9l0.4-31.1L297.8,430.3z M291.7,438.8l1.4,7.3l-12.5,2.3
			l-1.4-7.3L291.7,438.8z"/>
		<path d="M254.1,456.6l-17.1-0.4l0.2-7.6l17.1,0.4L254.1,456.6z"/>
	</g>
</g>
</svg>
